<?xml version="1.0" encoding="UTF-8" standalone="no"?>
<!-- Created with Inkscape (http://www.inkscape.org/) -->

<svg
   width="114.3676mm"
   height="51.576195mm"
   viewBox="0 0 114.3676 51.576195"
   version="1.1"
   id="svg1"
   xml:space="preserve"
   xmlns="http://www.w3.org/2000/svg"
   xmlns:svg="http://www.w3.org/2000/svg"><defs
     id="defs1" /><g
     id="layer2"
     style="display:inline;opacity:1"
     transform="translate(-47.799665,-38.136702)"><g
       id="g263"><path
         id="rect1"
         style="fill:#cd181f;stroke-width:0.3;stroke-linecap:round;stroke-linejoin:round"
         d="m 47.800304,39.387791 h 13.739309 l 0.01191,23.283333 c 0,0 -0.03753,3.541699 3.82877,3.541699 3.866301,0 3.82877,-3.541699 3.82877,-3.541699 l 0.01191,-23.283333 h 13.739309 v 24.089698 c 0,0 0.383706,14.564698 -17.579985,14.564698 -17.963691,0 -17.579985,-14.564698 -17.579985,-14.564698 z" /><path
         d="M 87.921248,39.387777 V 77.351868 H 101.15713 V 65.905021 h 5.91747 c 0,0 13.80691,1.244198 13.80691,-12.636438 0,-13.880636 -14.34744,-13.880806 -14.34744,-13.880806 z m 13.233822,10.364742 h 2.78277 c 0.74019,0 3.70985,0.175049 3.70985,3.33778 0,3.162732 -3.70985,3.338298 -3.70985,3.338298 h -2.78277 z"
         style="fill:#cd181f;stroke-width:0.3;stroke-linecap:round;stroke-linejoin:round"
         id="path3" /><path
         id="path6"
         style="fill:#cd181f;stroke-width:0.3;stroke-linecap:round;stroke-linejoin:round"
         d="m 162.16726,57.916882 a 19.909605,19.78018 0 0 1 -19.9096,19.78018 19.909605,19.78018 0 0 1 -19.90961,-19.78018 19.909605,19.78018 0 0 1 19.90961,-19.78018 19.909605,19.78018 0 0 1 19.9096,19.78018 z" /><path
         id="rect6"
         style="stroke-width:0.3;stroke-linecap:round;stroke-linejoin:round"
         d="M 50.278198,84.820099 H 50.856 l -3.56e-4,3.192439 c 0,0 0.03828,1.137846 1.155966,1.137846 1.117685,0 1.155966,-1.137846 1.155966,-1.137846 L 53.168,84.820099 h 0.577022 v 3.19421 c 0,0 -0.02238,1.5875 -1.733412,1.5875 -1.711035,0 -1.733412,-1.5875 -1.733412,-1.5875 z" /><path
         id="rect7"
         style="stroke-width:0.3;stroke-linecap:round;stroke-linejoin:round"
         d="m 54.528297,84.621317 3.526703,3.677463 1.38e-4,-3.478679 0.568502,-2e-6 v 4.887721 l -3.54664,-3.70829 -1.84e-4,3.602279 h -0.548519 z" /><path
         id="rect8"
         style="stroke-width:0.3;stroke-linecap:round;stroke-linejoin:round"
         d="m 59.482502,84.820099 h 0.526187 v 4.78171 h -0.526187 z" /><path
         id="rect9"
         style="stroke-width:0.3;stroke-linecap:round;stroke-linejoin:round"
         d="m 60.453026,84.820099 h 0.597807 l 1.451399,3.519378 1.451398,-3.519378 h 0.597807 l -2.049205,4.892793 z" /><path
         id="rect10"
         style="stroke-width:0.3;stroke-linecap:round;stroke-linejoin:round"
         d="m 64.913864,84.820099 h 2.563151 v 0.55231 L 65.51843,85.372 l -4.3e-4,1.328733 1.833,2.67e-4 2.91e-4,0.505 -1.833291,2.27e-4 4.3e-4,1.842773 1.958585,4.99e-4 v 0.55231 h -2.563151 z" /><path
         d="m 68.181885,84.820146 v 4.78162 h 0.578127 l -5.16e-4,-2.062923 h 0.279184 l 1.44539,2.062923 h 0.652156 L 69.62004,87.490267 c 0,0 1.146798,-0.133616 1.137398,-1.334286 -0.0094,-1.20067 -1.181323,-1.335835 -1.181323,-1.335835 z m 0.565725,0.487724 h 0.486407 c 0,0 1.014925,0.0055 1.014925,0.886767 0,0.881264 -1.014925,0.886768 -1.014925,0.886768 H 68.74761 Z"
         style="stroke-width:0.3;stroke-linecap:round;stroke-linejoin:round"
         id="path12" /><path
         style="fill:#000000;stroke-width:0.3;stroke-linecap:round;stroke-linejoin:round"
         d="m 74.110497,85.405978 -0.391715,0.298172 c 0,0 -0.202583,-0.433904 -0.792782,-0.433904 -0.590199,0 -0.815009,0.360186 -0.814642,0.669754 3.67e-4,0.309568 0.378739,0.633936 0.727934,0.756308 0.349195,0.122372 1.442478,0.386126 1.442478,1.463683 0,0.717889 -0.5499,1.441773 -1.496551,1.441773 -1.248442,0 -1.430402,-1.301213 -1.430402,-1.301213 h 0.57464 c 0,0 0.100267,0.82269 0.888836,0.82269 0.788569,0 0.90537,-0.673532 0.90537,-0.938445 0,-0.264913 -0.06908,-0.661651 -0.942577,-0.97384 -0.873496,-0.312189 -1.194759,-0.677119 -1.194759,-1.270985 0,-0.593866 0.365879,-1.11987 1.339452,-1.11987 0.973573,0 1.184718,0.585877 1.184718,0.585877 z"
         id="path13" /><path
         id="path14"
         style="stroke-width:0.3;stroke-linecap:round;stroke-linejoin:round"
         d="m 74.953777,84.820099 h 0.526187 v 4.78171 h -0.526187 z" /><path
         id="path15"
         style="stroke-width:0.3;stroke-linecap:round;stroke-linejoin:round"
         d="m 75.962302,84.820099 h 2.794637 V 85.367 l -1.134225,-1.22e-4 v 4.234931 H 77.096527 V 85.366878 L 75.962302,85.367 Z" /><path
         d="m 80.533069,84.691471 -2.300635,4.910295 h 0.623735 l 0.604614,-1.251086 h 2.144055 l 0.604614,1.251086 h 0.624252 z m 0,1.182357 0.897103,1.999361 h -1.794723 z"
         style="stroke-width:0.3;stroke-linecap:round;stroke-linejoin:round"
         id="path16" /><path
         style="fill:#000000;stroke-width:0.3;stroke-linecap:round;stroke-linejoin:round"
         d="m 79.693925,83.593555 0.41218,-0.261631 0.742507,0.966137 -0.230935,0.184166 z"
         id="path17" /><path
         d="m 84.909029,84.820146 v 4.78162 h 1.358574 c 0,0 2.272212,-0.121453 2.272212,-2.455147 0,-2.333718 -2.272212,-2.326473 -2.272212,-2.326473 z m 0.599964,0.555005 h 0.729154 c 0,0 1.743046,-0.0053 1.743046,1.786454 0,1.791724 -1.743046,1.885156 -1.743046,1.885156 h -0.729154 z"
         style="stroke-width:0.3;stroke-linecap:round;stroke-linejoin:round"
         id="path19" /><path
         id="path20"
         style="stroke-width:0.3;stroke-linecap:round;stroke-linejoin:round"
         d="m 101.14903,84.820099 h 2.56315 v 0.55231 l -1.95859,-4.09e-4 -4.3e-4,1.328733 1.833,2.67e-4 2.9e-4,0.505 -1.83329,2.27e-4 4.3e-4,1.842773 1.95859,4.99e-4 v 0.55231 h -2.56315 z" /><path
         d="m 94.398372,89.034875 h -1.435054 v -4.214729 h -0.549321 v 4.78162 h 1.984375 z"
         style="stroke-width:0.3;stroke-linecap:round;stroke-linejoin:round"
         id="path22" /><path
         d="m 96.625627,84.820146 v 4.78162 h 0.543636 v -2.045353 h 0.642855 c 0,0 1.356506,3.01e-4 1.356506,-1.367875 0,-1.368178 -1.356506,-1.368392 -1.356506,-1.368392 z M 97.831238,85.382 c 0,0 0.79375,-0.02145 0.79375,0.831342 0,0.852845 -0.79375,0.830658 -0.79375,0.830658 l -0.661975,-2.14e-4 v -1.661398 z"
         style="stroke-width:0.3;stroke-linecap:round;stroke-linejoin:round"
         id="path25" /><path
         id="path26"
         style="stroke-width:0.3;stroke-linecap:round;stroke-linejoin:round"
         d="m 99.71964,84.820099 h 0.52618 v 4.78171 h -0.52618 z" /><path
         id="rect26"
         style="stroke-width:0.3;stroke-linecap:round;stroke-linejoin:round"
         d="m 105.04444,84.738248 1.5961,3.583917 1.5961,-3.583917 0.98251,4.863561 h -0.55279 l -0.59803,-3.168886 -1.42779,3.168886 -1.4278,-3.168886 -0.59803,3.168886 h -0.55278 z" /><path
         d="m 111.88464,84.797322 c -1.36563,1.25e-4 -2.47267,1.080543 -2.47285,2.413373 -1.2e-4,1.333034 1.10701,2.41377 2.47285,2.413895 1.36604,1.58e-4 2.47349,-1.080661 2.47337,-2.413895 -1.8e-4,-1.33303 -1.10754,-2.413531 -2.47337,-2.413373 z m 0,0.508065 c 1.07836,-2.01e-4 1.9527,0.852848 1.95286,1.90531 1.3e-4,1.052664 -0.87429,1.906028 -1.95286,1.905827 -1.07836,-8.5e-5 -1.95246,-0.853365 -1.95233,-1.905827 1.6e-4,-1.05226 0.87418,-1.905225 1.95233,-1.90531 z"
         style="stroke-width:0.3;stroke-linecap:round;stroke-linejoin:round"
         id="path29" /><path
         id="path30"
         style="stroke-width:0.3;stroke-linecap:round;stroke-linejoin:round"
         d="m 114.88425,84.621317 3.5267,3.677463 1.4e-4,-3.478679 0.5685,-2e-6 v 4.887721 l -3.54664,-3.70829 -1.8e-4,3.602279 h -0.54852 z" /><path
         id="path31"
         style="stroke-width:0.3;stroke-linecap:round;stroke-linejoin:round"
         d="m 119.41814,84.820099 h 2.79464 V 85.367 l -1.13423,-1.22e-4 v 4.234931 h -0.52619 v -4.234931 l -1.13422,1.22e-4 z" /><path
         id="path32"
         style="stroke-width:0.3;stroke-linecap:round;stroke-linejoin:round"
         d="m 122.69267,84.820099 h 2.56315 v 0.55231 l -1.95859,-4.09e-4 -4.3e-4,1.328733 1.833,2.67e-4 2.9e-4,0.505 -1.83329,2.27e-4 4.3e-4,1.842773 1.95859,4.99e-4 v 0.55231 h -2.56315 z" /><path
         d="m 129.91531,84.785067 c -1.37257,1.26e-4 -2.48523,1.086029 -2.4854,2.425626 -1.3e-4,1.339803 1.11262,2.426026 2.4854,2.426152 1.37298,1.59e-4 2.48605,-1.086148 2.48592,-2.426152 -1.7e-4,-1.339798 -1.11316,-2.425785 -2.48592,-2.425626 z m 0,0.52032 c 1.07836,-2.01e-4 1.9527,0.852848 1.95286,1.90531 1.3e-4,1.052664 -0.87429,1.906028 -1.95286,1.905827 -1.07836,-8.5e-5 -1.95246,-0.853365 -1.95233,-1.905827 1.6e-4,-1.05226 0.87418,-1.905225 1.95233,-1.90531 z"
         style="stroke-width:0.3;stroke-linecap:round;stroke-linejoin:round"
         id="path33" /><path
         d="m 132.93567,84.820146 v 4.78162 h 0.57813 l -5.2e-4,-2.062923 h 0.27918 l 1.44539,2.062923 h 0.65216 l -1.51619,-2.111499 c 0,0 1.1468,-0.133616 1.1374,-1.334286 -0.009,-1.20067 -1.18132,-1.335835 -1.18132,-1.335835 z m 0.56572,0.487724 h 0.48641 c 0,0 1.01493,0.0055 1.01493,0.886767 0,0.881264 -1.01493,0.886768 -1.01493,0.886768 h -0.48641 z"
         style="stroke-width:0.3;stroke-linecap:round;stroke-linejoin:round"
         id="path34" /><path
         id="path35"
         style="stroke-width:0.3;stroke-linecap:round;stroke-linejoin:round"
         d="m 136.35704,84.820099 h 0.52618 v 4.78171 h -0.52618 z" /><path
         id="path36"
         style="stroke-width:0.3;stroke-linecap:round;stroke-linejoin:round"
         d="m 137.78662,84.820099 h 2.56315 v 0.55231 l -1.95859,-4.09e-4 -4.3e-4,1.328733 1.833,2.67e-4 2.9e-4,0.505 -1.83329,2.27e-4 4.3e-4,1.842773 1.95859,4.99e-4 v 0.55231 h -2.56315 z" /><path
         id="path37"
         style="stroke-width:0.3;stroke-linecap:round;stroke-linejoin:round"
         d="m 141.04493,84.621319 3.5267,3.677463 1.4e-4,-3.478679 0.5685,-2e-6 v 4.887721 l -3.54664,-3.70829 -1.8e-4,3.602279 h -0.54852 z" /><path
         id="path38"
         style="stroke-width:0.3;stroke-linecap:round;stroke-linejoin:round"
         d="m 145.54914,84.820099 h 2.79464 V 85.367 l -1.13423,-1.22e-4 v 4.234931 h -0.52619 v -4.234931 l -1.13422,1.22e-4 z" /><path
         d="m 150.10252,84.691471 -2.30063,4.910295 h 0.62373 l 0.60462,-1.251086 h 2.14405 l 0.60462,1.251086 h 0.62425 z m 0,1.182357 0.89711,1.999361 h -1.79473 z"
         style="stroke-width:0.3;stroke-linecap:round;stroke-linejoin:round"
         id="path39" /><path
         d="m 154.75827,89.034875 h -1.43505 v -4.214729 h -0.54933 v 4.78162 h 1.98438 z"
         style="stroke-width:0.3;stroke-linecap:round;stroke-linejoin:round"
         id="path40" /><path
         id="path41"
         style="stroke-width:0.3;stroke-linecap:round;stroke-linejoin:round"
         d="m 155.15794,84.820099 h 2.56315 v 0.55231 l -1.95859,-4.09e-4 -4.3e-4,1.328733 1.833,2.67e-4 2.9e-4,0.505 -1.83329,2.27e-4 4.3e-4,1.842773 1.95859,4.99e-4 v 0.55231 h -2.56315 z" /><path
         id="path42"
         style="stroke-width:0.3;stroke-linecap:round;stroke-linejoin:round"
         d="m 89.131964,84.820099 h 2.56315 v 0.55231 l -1.95859,-4.09e-4 -4.3e-4,1.328733 1.833,2.67e-4 2.9e-4,0.505 -1.83329,2.27e-4 4.3e-4,1.842773 1.95859,4.99e-4 v 0.55231 h -2.56315 z" /><path
         id="path43"
         style="fill:#e68c72;fill-opacity:1;stroke-width:0.3;stroke-linecap:round;stroke-linejoin:round"
         d="m 130.8407,59.585903 a 0.78961587,0.78961587 0 0 1 -0.78961,0.789616 0.78961587,0.78961587 0 0 1 -0.78962,-0.789616 0.78961587,0.78961587 0 0 1 0.78962,-0.789616 0.78961587,0.78961587 0 0 1 0.78961,0.789616 z" /><path
         id="path44"
         style="fill:#e68c72;stroke-width:0.3;stroke-linecap:round;stroke-linejoin:round"
         d="m 132.6502,59.585903 a 0.78961587,0.78961587 0 0 1 -0.78961,0.789616 0.78961587,0.78961587 0 0 1 -0.78962,-0.789616 0.78961587,0.78961587 0 0 1 0.78962,-0.789616 0.78961587,0.78961587 0 0 1 0.78961,0.789616 z" /><path
         id="path45"
         style="fill:#e68c72;stroke-width:0.3;stroke-linecap:round;stroke-linejoin:round"
         d="m 134.4597,59.585903 a 0.78961587,0.78961587 0 0 1 -0.78961,0.789616 0.78961587,0.78961587 0 0 1 -0.78962,-0.789616 0.78961587,0.78961587 0 0 1 0.78962,-0.789616 0.78961587,0.78961587 0 0 1 0.78961,0.789616 z" /><path
         id="path46"
         style="fill:#e68c72;stroke-width:0.3;stroke-linecap:round;stroke-linejoin:round"
         d="m 136.2692,59.585903 a 0.78961587,0.78961587 0 0 1 -0.78961,0.789616 0.78961587,0.78961587 0 0 1 -0.78962,-0.789616 0.78961587,0.78961587 0 0 1 0.78962,-0.789616 0.78961587,0.78961587 0 0 1 0.78961,0.789616 z" /><path
         id="path47"
         style="fill:#e68c72;stroke-width:0.3;stroke-linecap:round;stroke-linejoin:round"
         d="m 138.0787,59.585903 a 0.78961587,0.78961587 0 0 1 -0.78961,0.789616 0.78961587,0.78961587 0 0 1 -0.78962,-0.789616 0.78961587,0.78961587 0 0 1 0.78962,-0.789616 0.78961587,0.78961587 0 0 1 0.78961,0.789616 z" /><path
         id="path48"
         style="fill:#e68c72;stroke-width:0.3;stroke-linecap:round;stroke-linejoin:round"
         d="m 139.8882,59.585903 a 0.78961587,0.78961587 0 0 1 -0.78961,0.789616 0.78961587,0.78961587 0 0 1 -0.78962,-0.789616 0.78961587,0.78961587 0 0 1 0.78962,-0.789616 0.78961587,0.78961587 0 0 1 0.78961,0.789616 z" /><path
         id="path49"
         style="fill:#e68c72;stroke-width:0.3;stroke-linecap:round;stroke-linejoin:round"
         d="m 141.6977,59.585903 a 0.78961587,0.78961587 0 0 1 -0.78961,0.789616 0.78961587,0.78961587 0 0 1 -0.78962,-0.789616 0.78961587,0.78961587 0 0 1 0.78962,-0.789616 0.78961587,0.78961587 0 0 1 0.78961,0.789616 z" /><path
         id="path50"
         style="fill:#ffffff;stroke-width:0.3;stroke-linecap:round;stroke-linejoin:round"
         d="m 143.5072,59.585903 a 0.78961587,0.78961587 0 0 1 -0.78961,0.789616 0.78961587,0.78961587 0 0 1 -0.78962,-0.789616 0.78961587,0.78961587 0 0 1 0.78962,-0.789616 0.78961587,0.78961587 0 0 1 0.78961,0.789616 z" /><path
         id="path51"
         style="fill:#ffffff;stroke-width:0.3;stroke-linecap:round;stroke-linejoin:round"
         d="m 145.3167,59.585903 a 0.78961587,0.78961587 0 0 1 -0.78961,0.789616 0.78961587,0.78961587 0 0 1 -0.78962,-0.789616 0.78961587,0.78961587 0 0 1 0.78962,-0.789616 0.78961587,0.78961587 0 0 1 0.78961,0.789616 z" /><path
         id="path52"
         style="fill:#ffffff;stroke-width:0.3;stroke-linecap:round;stroke-linejoin:round"
         d="m 147.1262,59.585903 a 0.78961587,0.78961587 0 0 1 -0.78961,0.789616 0.78961587,0.78961587 0 0 1 -0.78962,-0.789616 0.78961587,0.78961587 0 0 1 0.78962,-0.789616 0.78961587,0.78961587 0 0 1 0.78961,0.789616 z" /><path
         id="path53"
         style="fill:#ffffff;stroke-width:0.3;stroke-linecap:round;stroke-linejoin:round"
         d="m 148.9357,59.585903 a 0.78961587,0.78961587 0 0 1 -0.78961,0.789616 0.78961587,0.78961587 0 0 1 -0.78962,-0.789616 0.78961587,0.78961587 0 0 1 0.78962,-0.789616 0.78961587,0.78961587 0 0 1 0.78961,0.789616 z" /><path
         id="path56"
         style="fill:#e68c72;stroke-width:0.3;stroke-linecap:round;stroke-linejoin:round"
         d="m 132.6502,61.404842 a 0.78961587,0.78961587 0 0 1 -0.78961,0.789616 0.78961587,0.78961587 0 0 1 -0.78962,-0.789616 0.78961587,0.78961587 0 0 1 0.78962,-0.789616 0.78961587,0.78961587 0 0 1 0.78961,0.789616 z" /><path
         id="path57"
         style="fill:#e68c72;stroke-width:0.3;stroke-linecap:round;stroke-linejoin:round"
         d="m 134.4597,61.404842 a 0.78961587,0.78961587 0 0 1 -0.78961,0.789616 0.78961587,0.78961587 0 0 1 -0.78962,-0.789616 0.78961587,0.78961587 0 0 1 0.78962,-0.789616 0.78961587,0.78961587 0 0 1 0.78961,0.789616 z" /><path
         id="path58"
         style="fill:#e68c72;stroke-width:0.3;stroke-linecap:round;stroke-linejoin:round"
         d="m 136.2692,61.404842 a 0.78961587,0.78961587 0 0 1 -0.78961,0.789616 0.78961587,0.78961587 0 0 1 -0.78962,-0.789616 0.78961587,0.78961587 0 0 1 0.78962,-0.789616 0.78961587,0.78961587 0 0 1 0.78961,0.789616 z" /><path
         id="path59"
         style="fill:#e68c72;stroke-width:0.3;stroke-linecap:round;stroke-linejoin:round"
         d="m 138.0787,61.404842 a 0.78961587,0.78961587 0 0 1 -0.78961,0.789616 0.78961587,0.78961587 0 0 1 -0.78962,-0.789616 0.78961587,0.78961587 0 0 1 0.78962,-0.789616 0.78961587,0.78961587 0 0 1 0.78961,0.789616 z" /><path
         id="path60"
         style="fill:#e68c72;stroke-width:0.3;stroke-linecap:round;stroke-linejoin:round"
         d="m 139.8882,61.404842 a 0.78961587,0.78961587 0 0 1 -0.78961,0.789616 0.78961587,0.78961587 0 0 1 -0.78962,-0.789616 0.78961587,0.78961587 0 0 1 0.78962,-0.789616 0.78961587,0.78961587 0 0 1 0.78961,0.789616 z" /><path
         id="path61"
         style="fill:#e68c72;stroke-width:0.3;stroke-linecap:round;stroke-linejoin:round"
         d="m 141.6977,61.404842 a 0.78961587,0.78961587 0 0 1 -0.78961,0.789616 0.78961587,0.78961587 0 0 1 -0.78962,-0.789616 0.78961587,0.78961587 0 0 1 0.78962,-0.789616 0.78961587,0.78961587 0 0 1 0.78961,0.789616 z" /><path
         id="path62"
         style="fill:#ffffff;stroke-width:0.3;stroke-linecap:round;stroke-linejoin:round"
         d="m 143.5072,61.404842 a 0.78961587,0.78961587 0 0 1 -0.78961,0.789616 0.78961587,0.78961587 0 0 1 -0.78962,-0.789616 0.78961587,0.78961587 0 0 1 0.78962,-0.789616 0.78961587,0.78961587 0 0 1 0.78961,0.789616 z" /><path
         id="path63"
         style="fill:#ffffff;stroke-width:0.3;stroke-linecap:round;stroke-linejoin:round"
         d="m 145.3167,61.404842 a 0.78961587,0.78961587 0 0 1 -0.78961,0.789616 0.78961587,0.78961587 0 0 1 -0.78962,-0.789616 0.78961587,0.78961587 0 0 1 0.78962,-0.789616 0.78961587,0.78961587 0 0 1 0.78961,0.789616 z" /><path
         id="path64"
         style="display:inline;fill:#ffffff;stroke-width:0.3;stroke-linecap:round;stroke-linejoin:round"
         d="m 147.1262,61.404842 a 0.78961587,0.78961587 0 0 1 -0.78961,0.789616 0.78961587,0.78961587 0 0 1 -0.78962,-0.789616 0.78961587,0.78961587 0 0 1 0.78962,-0.789616 0.78961587,0.78961587 0 0 1 0.78961,0.789616 z" /><path
         id="path65"
         style="fill:#ffffff;stroke-width:0.3;stroke-linecap:round;stroke-linejoin:round"
         d="m 148.9357,61.404842 a 0.78961587,0.78961587 0 0 1 -0.78961,0.789616 0.78961587,0.78961587 0 0 1 -0.78962,-0.789616 0.78961587,0.78961587 0 0 1 0.78962,-0.789616 0.78961587,0.78961587 0 0 1 0.78961,0.789616 z" /><path
         id="path66"
         style="fill:#ffffff;stroke-width:0.3;stroke-linecap:round;stroke-linejoin:round"
         d="m 150.7452,61.404842 a 0.78961587,0.78961587 0 0 1 -0.78961,0.789616 0.78961587,0.78961587 0 0 1 -0.78962,-0.789616 0.78961587,0.78961587 0 0 1 0.78962,-0.789616 0.78961587,0.78961587 0 0 1 0.78961,0.789616 z" /><path
         id="path69"
         style="fill:#e68c72;stroke-width:0.3;stroke-linecap:round;stroke-linejoin:round"
         d="m 134.4597,63.223781 a 0.78961587,0.78961587 0 0 1 -0.78961,0.789616 0.78961587,0.78961587 0 0 1 -0.78962,-0.789616 0.78961587,0.78961587 0 0 1 0.78962,-0.789616 0.78961587,0.78961587 0 0 1 0.78961,0.789616 z" /><path
         id="path70"
         style="fill:#e68c72;stroke-width:0.3;stroke-linecap:round;stroke-linejoin:round"
         d="m 136.2692,63.223781 a 0.78961587,0.78961587 0 0 1 -0.78961,0.789616 0.78961587,0.78961587 0 0 1 -0.78962,-0.789616 0.78961587,0.78961587 0 0 1 0.78962,-0.789616 0.78961587,0.78961587 0 0 1 0.78961,0.789616 z" /><path
         id="path71"
         style="fill:#e68c72;stroke-width:0.3;stroke-linecap:round;stroke-linejoin:round"
         d="m 138.0787,63.223781 a 0.78961587,0.78961587 0 0 1 -0.78961,0.789616 0.78961587,0.78961587 0 0 1 -0.78962,-0.789616 0.78961587,0.78961587 0 0 1 0.78962,-0.789616 0.78961587,0.78961587 0 0 1 0.78961,0.789616 z" /><path
         id="path72"
         style="fill:#e68c72;stroke-width:0.3;stroke-linecap:round;stroke-linejoin:round"
         d="m 139.8882,63.223781 a 0.78961587,0.78961587 0 0 1 -0.78961,0.789616 0.78961587,0.78961587 0 0 1 -0.78962,-0.789616 0.78961587,0.78961587 0 0 1 0.78962,-0.789616 0.78961587,0.78961587 0 0 1 0.78961,0.789616 z" /><path
         id="path73"
         style="fill:#e68c72;stroke-width:0.3;stroke-linecap:round;stroke-linejoin:round"
         d="m 141.6977,63.223781 a 0.78961587,0.78961587 0 0 1 -0.78961,0.789616 0.78961587,0.78961587 0 0 1 -0.78962,-0.789616 0.78961587,0.78961587 0 0 1 0.78962,-0.789616 0.78961587,0.78961587 0 0 1 0.78961,0.789616 z" /><path
         id="path74"
         style="fill:#ffffff;stroke-width:0.3;stroke-linecap:round;stroke-linejoin:round"
         d="m 143.5072,63.223781 a 0.78961587,0.78961587 0 0 1 -0.78961,0.789616 0.78961587,0.78961587 0 0 1 -0.78962,-0.789616 0.78961587,0.78961587 0 0 1 0.78962,-0.789616 0.78961587,0.78961587 0 0 1 0.78961,0.789616 z" /><path
         id="path75"
         style="fill:#ffffff;stroke-width:0.3;stroke-linecap:round;stroke-linejoin:round"
         d="m 145.3167,63.223781 a 0.78961587,0.78961587 0 0 1 -0.78961,0.789616 0.78961587,0.78961587 0 0 1 -0.78962,-0.789616 0.78961587,0.78961587 0 0 1 0.78962,-0.789616 0.78961587,0.78961587 0 0 1 0.78961,0.789616 z" /><path
         id="path76"
         style="fill:#ffffff;stroke-width:0.3;stroke-linecap:round;stroke-linejoin:round"
         d="m 147.1262,63.223781 a 0.78961587,0.78961587 0 0 1 -0.78961,0.789616 0.78961587,0.78961587 0 0 1 -0.78962,-0.789616 0.78961587,0.78961587 0 0 1 0.78962,-0.789616 0.78961587,0.78961587 0 0 1 0.78961,0.789616 z" /><path
         id="path77"
         style="fill:#ffffff;stroke-width:0.3;stroke-linecap:round;stroke-linejoin:round"
         d="m 148.9357,63.223781 a 0.78961587,0.78961587 0 0 1 -0.78961,0.789616 0.78961587,0.78961587 0 0 1 -0.78962,-0.789616 0.78961587,0.78961587 0 0 1 0.78962,-0.789616 0.78961587,0.78961587 0 0 1 0.78961,0.789616 z" /><path
         id="path78"
         style="fill:#ffffff;stroke-width:0.3;stroke-linecap:round;stroke-linejoin:round"
         d="m 150.7452,63.223781 a 0.78961587,0.78961587 0 0 1 -0.78961,0.789616 0.78961587,0.78961587 0 0 1 -0.78962,-0.789616 0.78961587,0.78961587 0 0 1 0.78962,-0.789616 0.78961587,0.78961587 0 0 1 0.78961,0.789616 z" /><path
         id="path82"
         style="fill:#e68c72;stroke-width:0.3;stroke-linecap:round;stroke-linejoin:round"
         d="m 136.2692,65.04272 a 0.78961587,0.78961587 0 0 1 -0.78961,0.789616 0.78961587,0.78961587 0 0 1 -0.78962,-0.789616 0.78961587,0.78961587 0 0 1 0.78962,-0.789616 0.78961587,0.78961587 0 0 1 0.78961,0.789616 z" /><path
         id="path83"
         style="fill:#e68c72;stroke-width:0.3;stroke-linecap:round;stroke-linejoin:round"
         d="m 138.0787,65.04272 a 0.78961587,0.78961587 0 0 1 -0.78961,0.789616 0.78961587,0.78961587 0 0 1 -0.78962,-0.789616 0.78961587,0.78961587 0 0 1 0.78962,-0.789616 0.78961587,0.78961587 0 0 1 0.78961,0.789616 z" /><path
         id="path84"
         style="fill:#e68c72;stroke-width:0.3;stroke-linecap:round;stroke-linejoin:round"
         d="m 139.8882,65.04272 a 0.78961587,0.78961587 0 0 1 -0.78961,0.789616 0.78961587,0.78961587 0 0 1 -0.78962,-0.789616 0.78961587,0.78961587 0 0 1 0.78962,-0.789616 0.78961587,0.78961587 0 0 1 0.78961,0.789616 z" /><path
         id="path85"
         style="fill:#e68c72;stroke-width:0.3;stroke-linecap:round;stroke-linejoin:round"
         d="m 141.6977,65.04272 a 0.78961587,0.78961587 0 0 1 -0.78961,0.789616 0.78961587,0.78961587 0 0 1 -0.78962,-0.789616 0.78961587,0.78961587 0 0 1 0.78962,-0.789616 0.78961587,0.78961587 0 0 1 0.78961,0.789616 z" /><path
         id="path86"
         style="fill:#ffffff;stroke-width:0.3;stroke-linecap:round;stroke-linejoin:round"
         d="m 143.5072,65.04272 a 0.78961587,0.78961587 0 0 1 -0.78961,0.789616 0.78961587,0.78961587 0 0 1 -0.78962,-0.789616 0.78961587,0.78961587 0 0 1 0.78962,-0.789616 0.78961587,0.78961587 0 0 1 0.78961,0.789616 z" /><path
         id="path87"
         style="fill:#ffffff;stroke-width:0.3;stroke-linecap:round;stroke-linejoin:round"
         d="m 145.3167,65.04272 a 0.78961587,0.78961587 0 0 1 -0.78961,0.789616 0.78961587,0.78961587 0 0 1 -0.78962,-0.789616 0.78961587,0.78961587 0 0 1 0.78962,-0.789616 0.78961587,0.78961587 0 0 1 0.78961,0.789616 z" /><path
         id="path88"
         style="fill:#ffffff;stroke-width:0.3;stroke-linecap:round;stroke-linejoin:round"
         d="m 147.1262,65.04272 a 0.78961587,0.78961587 0 0 1 -0.78961,0.789616 0.78961587,0.78961587 0 0 1 -0.78962,-0.789616 0.78961587,0.78961587 0 0 1 0.78962,-0.789616 0.78961587,0.78961587 0 0 1 0.78961,0.789616 z" /><path
         id="path89"
         style="fill:#ffffff;stroke-width:0.3;stroke-linecap:round;stroke-linejoin:round"
         d="m 148.9357,65.04272 a 0.78961587,0.78961587 0 0 1 -0.78961,0.789616 0.78961587,0.78961587 0 0 1 -0.78962,-0.789616 0.78961587,0.78961587 0 0 1 0.78962,-0.789616 0.78961587,0.78961587 0 0 1 0.78961,0.789616 z" /><path
         id="path90"
         style="fill:#ffffff;stroke-width:0.3;stroke-linecap:round;stroke-linejoin:round"
         d="m 150.7452,65.04272 a 0.78961587,0.78961587 0 0 1 -0.78961,0.789616 0.78961587,0.78961587 0 0 1 -0.78962,-0.789616 0.78961587,0.78961587 0 0 1 0.78962,-0.789616 0.78961587,0.78961587 0 0 1 0.78961,0.789616 z" /><path
         id="path93"
         style="fill:#e68c72;stroke-width:0.3;stroke-linecap:round;stroke-linejoin:round"
         d="m 134.4597,66.861659 a 0.78961587,0.78961587 0 0 1 -0.78961,0.789616 0.78961587,0.78961587 0 0 1 -0.78962,-0.789616 0.78961587,0.78961587 0 0 1 0.78962,-0.789616 0.78961587,0.78961587 0 0 1 0.78961,0.789616 z" /><path
         id="path94"
         style="fill:#e68c72;stroke-width:0.3;stroke-linecap:round;stroke-linejoin:round"
         d="m 136.2692,66.861659 a 0.78961587,0.78961587 0 0 1 -0.78961,0.789616 0.78961587,0.78961587 0 0 1 -0.78962,-0.789616 0.78961587,0.78961587 0 0 1 0.78962,-0.789616 0.78961587,0.78961587 0 0 1 0.78961,0.789616 z" /><path
         id="path95"
         style="fill:#e68c72;stroke-width:0.3;stroke-linecap:round;stroke-linejoin:round"
         d="m 138.0787,66.861659 a 0.78961587,0.78961587 0 0 1 -0.78961,0.789616 0.78961587,0.78961587 0 0 1 -0.78962,-0.789616 0.78961587,0.78961587 0 0 1 0.78962,-0.789616 0.78961587,0.78961587 0 0 1 0.78961,0.789616 z" /><path
         id="path96"
         style="fill:#e68c72;stroke-width:0.3;stroke-linecap:round;stroke-linejoin:round"
         d="m 139.8882,66.861659 a 0.78961587,0.78961587 0 0 1 -0.78961,0.789616 0.78961587,0.78961587 0 0 1 -0.78962,-0.789616 0.78961587,0.78961587 0 0 1 0.78962,-0.789616 0.78961587,0.78961587 0 0 1 0.78961,0.789616 z" /><path
         id="path97"
         style="fill:#e68c72;stroke-width:0.3;stroke-linecap:round;stroke-linejoin:round"
         d="m 141.6977,66.861659 a 0.78961587,0.78961587 0 0 1 -0.78961,0.789616 0.78961587,0.78961587 0 0 1 -0.78962,-0.789616 0.78961587,0.78961587 0 0 1 0.78962,-0.789616 0.78961587,0.78961587 0 0 1 0.78961,0.789616 z" /><path
         id="path98"
         style="fill:#e68c72;stroke-width:0.3;stroke-linecap:round;stroke-linejoin:round"
         d="m 143.5072,66.861659 a 0.78961587,0.78961587 0 0 1 -0.78961,0.789616 0.78961587,0.78961587 0 0 1 -0.78962,-0.789616 0.78961587,0.78961587 0 0 1 0.78962,-0.789616 0.78961587,0.78961587 0 0 1 0.78961,0.789616 z" /><path
         id="path99"
         style="fill:#ffffff;stroke-width:0.3;stroke-linecap:round;stroke-linejoin:round"
         d="m 145.3167,66.861659 a 0.78961587,0.78961587 0 0 1 -0.78961,0.789616 0.78961587,0.78961587 0 0 1 -0.78962,-0.789616 0.78961587,0.78961587 0 0 1 0.78962,-0.789616 0.78961587,0.78961587 0 0 1 0.78961,0.789616 z" /><path
         id="path100"
         style="fill:#ffffff;stroke-width:0.3;stroke-linecap:round;stroke-linejoin:round"
         d="m 147.1262,66.861659 a 0.78961587,0.78961587 0 0 1 -0.78961,0.789616 0.78961587,0.78961587 0 0 1 -0.78962,-0.789616 0.78961587,0.78961587 0 0 1 0.78962,-0.789616 0.78961587,0.78961587 0 0 1 0.78961,0.789616 z" /><path
         id="path102"
         style="fill:#ffffff;stroke-width:0.3;stroke-linecap:round;stroke-linejoin:round"
         d="m 150.7452,66.861659 a 0.78961587,0.78961587 0 0 1 -0.78961,0.789616 0.78961587,0.78961587 0 0 1 -0.78962,-0.789616 0.78961587,0.78961587 0 0 1 0.78962,-0.789616 0.78961587,0.78961587 0 0 1 0.78961,0.789616 z" /><path
         id="path105"
         style="fill:#e68c72;stroke-width:0.3;stroke-linecap:round;stroke-linejoin:round"
         d="m 134.4597,68.680598 a 0.78961587,0.78961587 0 0 1 -0.78961,0.789616 0.78961587,0.78961587 0 0 1 -0.78962,-0.789616 0.78961587,0.78961587 0 0 1 0.78962,-0.789616 0.78961587,0.78961587 0 0 1 0.78961,0.789616 z" /><path
         id="path106"
         style="fill:#e68c72;stroke-width:0.3;stroke-linecap:round;stroke-linejoin:round"
         d="m 136.2692,68.680598 a 0.78961587,0.78961587 0 0 1 -0.78961,0.789616 0.78961587,0.78961587 0 0 1 -0.78962,-0.789616 0.78961587,0.78961587 0 0 1 0.78962,-0.789616 0.78961587,0.78961587 0 0 1 0.78961,0.789616 z" /><path
         id="path107"
         style="fill:#e68c72;stroke-width:0.3;stroke-linecap:round;stroke-linejoin:round"
         d="m 138.0787,68.680598 a 0.78961587,0.78961587 0 0 1 -0.78961,0.789616 0.78961587,0.78961587 0 0 1 -0.78962,-0.789616 0.78961587,0.78961587 0 0 1 0.78962,-0.789616 0.78961587,0.78961587 0 0 1 0.78961,0.789616 z" /><path
         id="path108"
         style="fill:#e68c72;stroke-width:0.3;stroke-linecap:round;stroke-linejoin:round"
         d="m 139.8882,68.680598 a 0.78961587,0.78961587 0 0 1 -0.78961,0.789616 0.78961587,0.78961587 0 0 1 -0.78962,-0.789616 0.78961587,0.78961587 0 0 1 0.78962,-0.789616 0.78961587,0.78961587 0 0 1 0.78961,0.789616 z" /><path
         id="path109"
         style="fill:#e68c72;stroke-width:0.3;stroke-linecap:round;stroke-linejoin:round"
         d="m 141.6977,68.680598 a 0.78961587,0.78961587 0 0 1 -0.78961,0.789616 0.78961587,0.78961587 0 0 1 -0.78962,-0.789616 0.78961587,0.78961587 0 0 1 0.78962,-0.789616 0.78961587,0.78961587 0 0 1 0.78961,0.789616 z" /><path
         id="path110"
         style="fill:#e68c72;stroke-width:0.3;stroke-linecap:round;stroke-linejoin:round"
         d="m 143.5072,68.680598 a 0.78961587,0.78961587 0 0 1 -0.78961,0.789616 0.78961587,0.78961587 0 0 1 -0.78962,-0.789616 0.78961587,0.78961587 0 0 1 0.78962,-0.789616 0.78961587,0.78961587 0 0 1 0.78961,0.789616 z" /><path
         id="path111"
         style="fill:#ffffff;stroke-width:0.3;stroke-linecap:round;stroke-linejoin:round"
         d="m 145.3167,68.680598 a 0.78961587,0.78961587 0 0 1 -0.78961,0.789616 0.78961587,0.78961587 0 0 1 -0.78962,-0.789616 0.78961587,0.78961587 0 0 1 0.78962,-0.789616 0.78961587,0.78961587 0 0 1 0.78961,0.789616 z" /><path
         id="path118"
         style="fill:#e68c72;stroke-width:0.3;stroke-linecap:round;stroke-linejoin:round"
         d="m 136.2692,70.499537 a 0.78961587,0.78961587 0 0 1 -0.78961,0.789616 0.78961587,0.78961587 0 0 1 -0.78962,-0.789616 0.78961587,0.78961587 0 0 1 0.78962,-0.789616 0.78961587,0.78961587 0 0 1 0.78961,0.789616 z" /><path
         id="path119"
         style="fill:#e68c72;stroke-width:0.3;stroke-linecap:round;stroke-linejoin:round"
         d="m 138.0787,70.499537 a 0.78961587,0.78961587 0 0 1 -0.78961,0.789616 0.78961587,0.78961587 0 0 1 -0.78962,-0.789616 0.78961587,0.78961587 0 0 1 0.78962,-0.789616 0.78961587,0.78961587 0 0 1 0.78961,0.789616 z" /><path
         id="path120"
         style="fill:#e68c72;stroke-width:0.3;stroke-linecap:round;stroke-linejoin:round"
         d="m 139.8882,70.499537 a 0.78961587,0.78961587 0 0 1 -0.78961,0.789616 0.78961587,0.78961587 0 0 1 -0.78962,-0.789616 0.78961587,0.78961587 0 0 1 0.78962,-0.789616 0.78961587,0.78961587 0 0 1 0.78961,0.789616 z" /><path
         id="path121"
         style="fill:#e68c72;stroke-width:0.3;stroke-linecap:round;stroke-linejoin:round"
         d="m 141.6977,70.499537 a 0.78961587,0.78961587 0 0 1 -0.78961,0.789616 0.78961587,0.78961587 0 0 1 -0.78962,-0.789616 0.78961587,0.78961587 0 0 1 0.78962,-0.789616 0.78961587,0.78961587 0 0 1 0.78961,0.789616 z" /><path
         id="path122"
         style="fill:#e68c72;stroke-width:0.3;stroke-linecap:round;stroke-linejoin:round"
         d="m 143.5072,70.499537 a 0.78961587,0.78961587 0 0 1 -0.78961,0.789616 0.78961587,0.78961587 0 0 1 -0.78962,-0.789616 0.78961587,0.78961587 0 0 1 0.78962,-0.789616 0.78961587,0.78961587 0 0 1 0.78961,0.789616 z" /><path
         id="path132"
         style="fill:#e68c72;stroke-width:0.3;stroke-linecap:round;stroke-linejoin:round"
         d="m 139.8882,72.318476 a 0.78961587,0.78961587 0 0 1 -0.78961,0.789616 0.78961587,0.78961587 0 0 1 -0.78962,-0.789616 0.78961587,0.78961587 0 0 1 0.78962,-0.789616 0.78961587,0.78961587 0 0 1 0.78961,0.789616 z" /><path
         id="path133"
         style="fill:#e68c72;stroke-width:0.3;stroke-linecap:round;stroke-linejoin:round"
         d="m 141.6977,72.318476 a 0.78961587,0.78961587 0 0 1 -0.78961,0.789616 0.78961587,0.78961587 0 0 1 -0.78962,-0.789616 0.78961587,0.78961587 0 0 1 0.78962,-0.789616 0.78961587,0.78961587 0 0 1 0.78961,0.789616 z" /><path
         id="path142"
         style="fill:#e68c72;stroke-width:0.3;stroke-linecap:round;stroke-linejoin:round"
         d="m 136.2692,57.766964 a 0.78961587,0.78961587 0 0 1 -0.78961,0.789616 0.78961587,0.78961587 0 0 1 -0.78962,-0.789616 0.78961587,0.78961587 0 0 1 0.78962,-0.789616 0.78961587,0.78961587 0 0 1 0.78961,0.789616 z" /><path
         id="path143"
         style="fill:#e68c72;stroke-width:0.3;stroke-linecap:round;stroke-linejoin:round"
         d="m 138.0787,57.766964 a 0.78961587,0.78961587 0 0 1 -0.78961,0.789616 0.78961587,0.78961587 0 0 1 -0.78962,-0.789616 0.78961587,0.78961587 0 0 1 0.78962,-0.789616 0.78961587,0.78961587 0 0 1 0.78961,0.789616 z" /><path
         id="path144"
         style="fill:#e68c72;stroke-width:0.3;stroke-linecap:round;stroke-linejoin:round"
         d="m 139.8882,57.766964 a 0.78961587,0.78961587 0 0 1 -0.78961,0.789616 0.78961587,0.78961587 0 0 1 -0.78962,-0.789616 0.78961587,0.78961587 0 0 1 0.78962,-0.789616 0.78961587,0.78961587 0 0 1 0.78961,0.789616 z" /><path
         id="path145"
         style="fill:#e68c72;stroke-width:0.3;stroke-linecap:round;stroke-linejoin:round"
         d="m 141.6977,57.766964 a 0.78961587,0.78961587 0 0 1 -0.78961,0.789616 0.78961587,0.78961587 0 0 1 -0.78962,-0.789616 0.78961587,0.78961587 0 0 1 0.78962,-0.789616 0.78961587,0.78961587 0 0 1 0.78961,0.789616 z" /><path
         id="path146"
         style="fill:#ffffff;stroke-width:0.3;stroke-linecap:round;stroke-linejoin:round"
         d="m 143.5072,57.766964 a 0.78961587,0.78961587 0 0 1 -0.78961,0.789616 0.78961587,0.78961587 0 0 1 -0.78962,-0.789616 0.78961587,0.78961587 0 0 1 0.78962,-0.789616 0.78961587,0.78961587 0 0 1 0.78961,0.789616 z" /><path
         id="path147"
         style="fill:#ffffff;stroke-width:0.3;stroke-linecap:round;stroke-linejoin:round"
         d="m 145.3167,57.766964 a 0.78961587,0.78961587 0 0 1 -0.78961,0.789616 0.78961587,0.78961587 0 0 1 -0.78962,-0.789616 0.78961587,0.78961587 0 0 1 0.78962,-0.789616 0.78961587,0.78961587 0 0 1 0.78961,0.789616 z" /><path
         id="path148"
         style="fill:#ffffff;stroke-width:0.3;stroke-linecap:round;stroke-linejoin:round"
         d="m 147.1262,57.766964 a 0.78961587,0.78961587 0 0 1 -0.78961,0.789616 0.78961587,0.78961587 0 0 1 -0.78962,-0.789616 0.78961587,0.78961587 0 0 1 0.78962,-0.789616 0.78961587,0.78961587 0 0 1 0.78961,0.789616 z" /><path
         id="path154"
         style="fill:#e68c72;stroke-width:0.3;stroke-linecap:round;stroke-linejoin:round"
         d="m 136.2692,55.948025 a 0.78961587,0.78961587 0 0 1 -0.78961,0.789616 0.78961587,0.78961587 0 0 1 -0.78962,-0.789616 0.78961587,0.78961587 0 0 1 0.78962,-0.789616 0.78961587,0.78961587 0 0 1 0.78961,0.789616 z" /><path
         id="path155"
         style="fill:#e68c72;stroke-width:0.3;stroke-linecap:round;stroke-linejoin:round"
         d="m 138.0787,55.948025 a 0.78961587,0.78961587 0 0 1 -0.78961,0.789616 0.78961587,0.78961587 0 0 1 -0.78962,-0.789616 0.78961587,0.78961587 0 0 1 0.78962,-0.789616 0.78961587,0.78961587 0 0 1 0.78961,0.789616 z" /><path
         id="path156"
         style="fill:#e68c72;stroke-width:0.3;stroke-linecap:round;stroke-linejoin:round"
         d="m 139.8882,55.948025 a 0.78961587,0.78961587 0 0 1 -0.78961,0.789616 0.78961587,0.78961587 0 0 1 -0.78962,-0.789616 0.78961587,0.78961587 0 0 1 0.78962,-0.789616 0.78961587,0.78961587 0 0 1 0.78961,0.789616 z" /><path
         id="path157"
         style="fill:#e68c72;stroke-width:0.3;stroke-linecap:round;stroke-linejoin:round"
         d="m 141.6977,55.948025 a 0.78961587,0.78961587 0 0 1 -0.78961,0.789616 0.78961587,0.78961587 0 0 1 -0.78962,-0.789616 0.78961587,0.78961587 0 0 1 0.78962,-0.789616 0.78961587,0.78961587 0 0 1 0.78961,0.789616 z" /><path
         id="path158"
         style="fill:#ffffff;stroke-width:0.3;stroke-linecap:round;stroke-linejoin:round"
         d="m 143.5072,55.948025 a 0.78961587,0.78961587 0 0 1 -0.78961,0.789616 0.78961587,0.78961587 0 0 1 -0.78962,-0.789616 0.78961587,0.78961587 0 0 1 0.78962,-0.789616 0.78961587,0.78961587 0 0 1 0.78961,0.789616 z" /><path
         id="path159"
         style="fill:#ffffff;stroke-width:0.3;stroke-linecap:round;stroke-linejoin:round"
         d="m 145.3167,55.948025 a 0.78961587,0.78961587 0 0 1 -0.78961,0.789616 0.78961587,0.78961587 0 0 1 -0.78962,-0.789616 0.78961587,0.78961587 0 0 1 0.78962,-0.789616 0.78961587,0.78961587 0 0 1 0.78961,0.789616 z" /><path
         id="path160"
         style="fill:#ffffff;stroke-width:0.3;stroke-linecap:round;stroke-linejoin:round"
         d="m 147.1262,55.948025 a 0.78961587,0.78961587 0 0 1 -0.78961,0.789616 0.78961587,0.78961587 0 0 1 -0.78962,-0.789616 0.78961587,0.78961587 0 0 1 0.78962,-0.789616 0.78961587,0.78961587 0 0 1 0.78961,0.789616 z" /><path
         id="path161"
         style="fill:#ffffff;stroke-width:0.3;stroke-linecap:round;stroke-linejoin:round"
         d="m 148.9357,55.948025 a 0.78961587,0.78961587 0 0 1 -0.78961,0.789616 0.78961587,0.78961587 0 0 1 -0.78962,-0.789616 0.78961587,0.78961587 0 0 1 0.78962,-0.789616 0.78961587,0.78961587 0 0 1 0.78961,0.789616 z" /><path
         id="path162"
         style="fill:#ffffff;stroke-width:0.3;stroke-linecap:round;stroke-linejoin:round"
         d="m 150.7452,55.948025 a 0.78961587,0.78961587 0 0 1 -0.78961,0.789616 0.78961587,0.78961587 0 0 1 -0.78962,-0.789616 0.78961587,0.78961587 0 0 1 0.78962,-0.789616 0.78961587,0.78961587 0 0 1 0.78961,0.789616 z" /><path
         id="path168"
         style="fill:#e68c72;stroke-width:0.3;stroke-linecap:round;stroke-linejoin:round"
         d="m 139.8882,54.129086 a 0.78961587,0.78961587 0 0 1 -0.78961,0.789616 0.78961587,0.78961587 0 0 1 -0.78962,-0.789616 0.78961587,0.78961587 0 0 1 0.78962,-0.789616 0.78961587,0.78961587 0 0 1 0.78961,0.789616 z" /><path
         id="path169"
         style="fill:#e68c72;stroke-width:0.3;stroke-linecap:round;stroke-linejoin:round"
         d="m 141.6977,54.129086 a 0.78961587,0.78961587 0 0 1 -0.78961,0.789616 0.78961587,0.78961587 0 0 1 -0.78962,-0.789616 0.78961587,0.78961587 0 0 1 0.78962,-0.789616 0.78961587,0.78961587 0 0 1 0.78961,0.789616 z" /><path
         id="path170"
         style="fill:#ffffff;stroke-width:0.3;stroke-linecap:round;stroke-linejoin:round"
         d="m 143.5072,54.129086 a 0.78961587,0.78961587 0 0 1 -0.78961,0.789616 0.78961587,0.78961587 0 0 1 -0.78962,-0.789616 0.78961587,0.78961587 0 0 1 0.78962,-0.789616 0.78961587,0.78961587 0 0 1 0.78961,0.789616 z" /><path
         id="path171"
         style="fill:#ffffff;stroke-width:0.3;stroke-linecap:round;stroke-linejoin:round"
         d="m 145.3167,54.129086 a 0.78961587,0.78961587 0 0 1 -0.78961,0.789616 0.78961587,0.78961587 0 0 1 -0.78962,-0.789616 0.78961587,0.78961587 0 0 1 0.78962,-0.789616 0.78961587,0.78961587 0 0 1 0.78961,0.789616 z" /><path
         id="path172"
         style="fill:#ffffff;stroke-width:0.3;stroke-linecap:round;stroke-linejoin:round"
         d="m 147.1262,54.129086 a 0.78961587,0.78961587 0 0 1 -0.78961,0.789616 0.78961587,0.78961587 0 0 1 -0.78962,-0.789616 0.78961587,0.78961587 0 0 1 0.78962,-0.789616 0.78961587,0.78961587 0 0 1 0.78961,0.789616 z" /><path
         id="path173"
         style="fill:#ffffff;stroke-width:0.3;stroke-linecap:round;stroke-linejoin:round"
         d="m 148.9357,54.129086 a 0.78961587,0.78961587 0 0 1 -0.78961,0.789616 0.78961587,0.78961587 0 0 1 -0.78962,-0.789616 0.78961587,0.78961587 0 0 1 0.78962,-0.789616 0.78961587,0.78961587 0 0 1 0.78961,0.789616 z" /><path
         id="path182"
         style="fill:#ffffff;stroke-width:0.3;stroke-linecap:round;stroke-linejoin:round"
         d="m 143.5072,52.310147 a 0.78961587,0.78961587 0 0 1 -0.78961,0.789616 0.78961587,0.78961587 0 0 1 -0.78962,-0.789616 0.78961587,0.78961587 0 0 1 0.78962,-0.789616 0.78961587,0.78961587 0 0 1 0.78961,0.789616 z" /><path
         id="path183"
         style="fill:#ffffff;stroke-width:0.3;stroke-linecap:round;stroke-linejoin:round"
         d="m 145.3167,52.310147 a 0.78961587,0.78961587 0 0 1 -0.78961,0.789616 0.78961587,0.78961587 0 0 1 -0.78962,-0.789616 0.78961587,0.78961587 0 0 1 0.78962,-0.789616 0.78961587,0.78961587 0 0 1 0.78961,0.789616 z" /><path
         id="path184"
         style="fill:#ffffff;stroke-width:0.3;stroke-linecap:round;stroke-linejoin:round"
         d="m 147.1262,52.310147 a 0.78961587,0.78961587 0 0 1 -0.78961,0.789616 0.78961587,0.78961587 0 0 1 -0.78962,-0.789616 0.78961587,0.78961587 0 0 1 0.78962,-0.789616 0.78961587,0.78961587 0 0 1 0.78961,0.789616 z" /><path
         id="path185"
         style="fill:#ffffff;stroke-width:0.3;stroke-linecap:round;stroke-linejoin:round"
         d="m 148.9357,52.310147 a 0.78961587,0.78961587 0 0 1 -0.78961,0.789616 0.78961587,0.78961587 0 0 1 -0.78962,-0.789616 0.78961587,0.78961587 0 0 1 0.78962,-0.789616 0.78961587,0.78961587 0 0 1 0.78961,0.789616 z" /><path
         id="path194"
         style="fill:#ffffff;stroke-width:0.3;stroke-linecap:round;stroke-linejoin:round"
         d="m 143.5072,50.491208 a 0.78961587,0.78961587 0 0 1 -0.78961,0.789616 0.78961587,0.78961587 0 0 1 -0.78962,-0.789616 0.78961587,0.78961587 0 0 1 0.78962,-0.789616 0.78961587,0.78961587 0 0 1 0.78961,0.789616 z" /><path
         id="path195"
         style="fill:#ffffff;stroke-width:0.3;stroke-linecap:round;stroke-linejoin:round"
         d="m 145.3167,50.491208 a 0.78961587,0.78961587 0 0 1 -0.78961,0.789616 0.78961587,0.78961587 0 0 1 -0.78962,-0.789616 0.78961587,0.78961587 0 0 1 0.78962,-0.789616 0.78961587,0.78961587 0 0 1 0.78961,0.789616 z" /><path
         id="path196"
         style="fill:#ffffff;stroke-width:0.3;stroke-linecap:round;stroke-linejoin:round"
         d="m 147.1262,50.491208 a 0.78961587,0.78961587 0 0 1 -0.78961,0.789616 0.78961587,0.78961587 0 0 1 -0.78962,-0.789616 0.78961587,0.78961587 0 0 1 0.78962,-0.789616 0.78961587,0.78961587 0 0 1 0.78961,0.789616 z" /><path
         id="path206"
         style="fill:#ffffff;stroke-width:0.3;stroke-linecap:round;stroke-linejoin:round"
         d="m 143.5072,48.672269 a 0.78961587,0.78961587 0 0 1 -0.78961,0.789616 0.78961587,0.78961587 0 0 1 -0.78962,-0.789616 0.78961587,0.78961587 0 0 1 0.78962,-0.789616 0.78961587,0.78961587 0 0 1 0.78961,0.789616 z" /><path
         id="path207"
         style="fill:#ffffff;stroke-width:0.3;stroke-linecap:round;stroke-linejoin:round"
         d="m 145.3167,48.672269 a 0.78961587,0.78961587 0 0 1 -0.78961,0.789616 0.78961587,0.78961587 0 0 1 -0.78962,-0.789616 0.78961587,0.78961587 0 0 1 0.78962,-0.789616 0.78961587,0.78961587 0 0 1 0.78961,0.789616 z" /><path
         id="path208"
         style="fill:#ffffff;stroke-width:0.3;stroke-linecap:round;stroke-linejoin:round"
         d="m 147.1262,48.672269 a 0.78961587,0.78961587 0 0 1 -0.78961,0.789616 0.78961587,0.78961587 0 0 1 -0.78962,-0.789616 0.78961587,0.78961587 0 0 1 0.78962,-0.789616 0.78961587,0.78961587 0 0 1 0.78961,0.789616 z" /><path
         id="path209"
         style="fill:#ffffff;stroke-width:0.3;stroke-linecap:round;stroke-linejoin:round"
         d="m 148.9357,48.672269 a 0.78961587,0.78961587 0 0 1 -0.78961,0.789616 0.78961587,0.78961587 0 0 1 -0.78962,-0.789616 0.78961587,0.78961587 0 0 1 0.78962,-0.789616 0.78961587,0.78961587 0 0 1 0.78961,0.789616 z" /><path
         id="path219"
         style="fill:#ffffff;stroke-width:0.3;stroke-linecap:round;stroke-linejoin:round"
         d="m 145.3167,46.85333 a 0.78961587,0.78961587 0 0 1 -0.78961,0.789616 0.78961587,0.78961587 0 0 1 -0.78962,-0.789616 0.78961587,0.78961587 0 0 1 0.78962,-0.789616 0.78961587,0.78961587 0 0 1 0.78961,0.789616 z" /><path
         id="path220"
         style="fill:#ffffff;stroke-width:0.3;stroke-linecap:round;stroke-linejoin:round"
         d="m 147.1262,46.85333 a 0.78961587,0.78961587 0 0 1 -0.78961,0.789616 0.78961587,0.78961587 0 0 1 -0.78962,-0.789616 0.78961587,0.78961587 0 0 1 0.78962,-0.789616 0.78961587,0.78961587 0 0 1 0.78961,0.789616 z" /><path
         id="path221"
         style="fill:#ffffff;stroke-width:0.3;stroke-linecap:round;stroke-linejoin:round"
         d="m 148.9357,46.85333 a 0.78961587,0.78961587 0 0 1 -0.78961,0.789616 0.78961587,0.78961587 0 0 1 -0.78962,-0.789616 0.78961587,0.78961587 0 0 1 0.78962,-0.789616 0.78961587,0.78961587 0 0 1 0.78961,0.789616 z" /><path
         id="path231"
         style="fill:#ffffff;stroke-width:0.3;stroke-linecap:round;stroke-linejoin:round"
         d="m 145.3167,45.034391 a 0.78961587,0.78961587 0 0 1 -0.78961,0.789616 0.78961587,0.78961587 0 0 1 -0.78962,-0.789616 0.78961587,0.78961587 0 0 1 0.78962,-0.789616 0.78961587,0.78961587 0 0 1 0.78961,0.789616 z" /><path
         id="path232"
         style="fill:#ffffff;stroke-width:0.3;stroke-linecap:round;stroke-linejoin:round"
         d="m 147.1262,45.034391 a 0.78961587,0.78961587 0 0 1 -0.78961,0.789616 0.78961587,0.78961587 0 0 1 -0.78962,-0.789616 0.78961587,0.78961587 0 0 1 0.78962,-0.789616 0.78961587,0.78961587 0 0 1 0.78961,0.789616 z" /><path
         id="path244"
         style="fill:#ffffff;stroke-width:0.3;stroke-linecap:round;stroke-linejoin:round"
         d="m 147.1262,43.215452 a 0.78961587,0.78961587 0 0 1 -0.78961,0.789616 0.78961587,0.78961587 0 0 1 -0.78962,-0.789616 0.78961587,0.78961587 0 0 1 0.78962,-0.789616 0.78961587,0.78961587 0 0 1 0.78961,0.789616 z" /><path
         id="path258"
         style="fill:#ffffff;stroke-width:0.3;stroke-linecap:round;stroke-linejoin:round"
         d="m 152.5547,61.404842 a 0.78961587,0.78961587 0 0 1 -0.78961,0.789616 0.78961587,0.78961587 0 0 1 -0.78962,-0.789616 0.78961587,0.78961587 0 0 1 0.78962,-0.789616 0.78961587,0.78961587 0 0 1 0.78961,0.789616 z" /><path
         id="path259"
         style="fill:#ffffff;stroke-width:0.3;stroke-linecap:round;stroke-linejoin:round"
         d="m 152.5547,63.223781 a 0.78961587,0.78961587 0 0 1 -0.78961,0.789616 0.78961587,0.78961587 0 0 1 -0.78962,-0.789616 0.78961587,0.78961587 0 0 1 0.78962,-0.789616 0.78961587,0.78961587 0 0 1 0.78961,0.789616 z" /><path
         id="path260"
         style="fill:#ffffff;stroke-width:0.3;stroke-linecap:round;stroke-linejoin:round"
         d="m 152.5547,65.04272 a 0.78961587,0.78961587 0 0 1 -0.78961,0.789616 0.78961587,0.78961587 0 0 1 -0.78962,-0.789616 0.78961587,0.78961587 0 0 1 0.78962,-0.789616 0.78961587,0.78961587 0 0 1 0.78961,0.789616 z" /><path
         id="path261"
         style="fill:#ffffff;stroke-width:0.3;stroke-linecap:round;stroke-linejoin:round"
         d="m 154.3642,65.04272 a 0.78961587,0.78961587 0 0 1 -0.78961,0.789616 0.78961587,0.78961587 0 0 1 -0.78962,-0.789616 0.78961587,0.78961587 0 0 1 0.78962,-0.789616 0.78961587,0.78961587 0 0 1 0.78961,0.789616 z" /></g></g></svg>
